<svg xmlns="http://www.w3.org/2000/svg" fill="#f1403c" viewBox="0 0 400 400"><path d="M200 652.362c-110.309 0-200 89.691-200 200s89.691 200 200 200 200-89.691 200-200-89.691-200-200-200zm0 25c96.798 0 175 78.202 175 175s-78.202 175-175 175-175-78.202-175-175 78.202-175 175-175zm-92.478 64.844-17.678 17.678 92.478 92.478-92.478 92.479 17.678 17.677L200 870.04l92.478 92.478 17.678-17.677-92.478-92.479 92.478-92.478-17.677-17.678L200 834.684Z" color="#000" font-family="sans-serif" font-weight="400" overflow="visible" style="line-height:normal;text-indent:0;text-align:start;text-decoration-line:none;text-decoration-style:solid;text-decoration-color:#000;text-transform:none;block-progression:tb;white-space:normal;isolation:auto;mix-blend-mode:normal;solid-color:#000;solid-opacity:1" transform="translate(0 -652.362)"/></svg>